<svg xmlns="http://www.w3.org/2000/svg" width="28" height="28" viewBox="0 0 28 28" fill="none">
  <path
    d="M6 3L6 20L10.5 16L13 22.5L15 21.5L12.5 14.5L18 14.5L6 3Z"
    fill="#FFFFFF"
    stroke="#FFFFFF"
    stroke-width="1.15"
    stroke-linejoin="round"
  />
  <path d="M6 3L18 14.5L12.5 14.5L6 3Z" fill="#E94835" />
  <path d="M6 3L12.5 14.5L15 21.5L13 22.5L10.5 16L6 20L6 3Z" fill="#3A6570" />
  <path d="M6 3L12.5 14.5" stroke="#111111" stroke-width="0.6" />
  <path
    d="M6 3L6 20L10.5 16L13 22.5L15 21.5L12.5 14.5L18 14.5L6 3Z"
    fill="none"
    stroke="#111111"
    stroke-width="0.8"
    stroke-linejoin="round"
  />
</svg>
