<svg preserveAspectRatio="xMidYMid meet" overflow="visible" style="display: block;" width="23.6654" height="23.6667" viewBox="0 0 23.6654 23.6667" fill="none" xmlns="http://www.w3.org/2000/svg">
<g id="Group">
<path id="Vector" d="M12.4905 17.0279C14.1415 15.5481 18.3329 11.4141 18.3329 7.5C18.3329 5.77609 17.6481 4.12279 16.4291 2.90381C15.2101 1.68482 13.5568 1 11.8329 1C10.109 1 8.45567 1.68482 7.23668 2.90381C6.01769 4.12279 5.33287 5.77609 5.33287 7.5C5.33287 11.4141 9.52537 15.5481 11.1753 17.0279C11.3642 17.1722 11.5952 17.2503 11.8329 17.2503C12.0705 17.2503 12.3016 17.1722 12.4905 17.0279Z" stroke="black" stroke-width="2" stroke-linecap="round" stroke-linejoin="round"/>
<path id="Vector_2" d="M11.8329 9.66667C13.0295 9.66667 13.9995 8.69662 13.9995 7.5C13.9995 6.30338 13.0295 5.33333 11.8329 5.33333C10.6363 5.33333 9.66621 6.30338 9.66621 7.5C9.66621 8.69662 10.6363 9.66667 11.8329 9.66667Z" stroke="black" stroke-width="2" stroke-linecap="round" stroke-linejoin="round"/>
<path id="Vector_3" d="M8.27304 14H4.25387C4.02673 14.0001 3.80536 14.0716 3.62107 14.2044C3.43677 14.3371 3.29888 14.5245 3.22687 14.7399L1.05587 21.2399C1.00145 21.4028 0.986503 21.5762 1.01227 21.7459C1.03804 21.9157 1.10379 22.0769 1.2041 22.2162C1.3044 22.3556 1.43639 22.4691 1.58918 22.5474C1.74196 22.6257 1.91118 22.6666 2.08287 22.6667H21.5829C21.7544 22.6665 21.9235 22.6257 22.0762 22.5474C22.2289 22.4691 22.3608 22.3557 22.4611 22.2165C22.5613 22.0773 22.6271 21.9163 22.653 21.7467C22.6789 21.5771 22.6641 21.4038 22.6099 21.241L20.4432 14.741C20.3713 14.5252 20.2333 14.3375 20.0488 14.2045C19.8643 14.0715 19.6426 13.9999 19.4151 14H15.3938" stroke="black" stroke-width="2" stroke-linecap="round" stroke-linejoin="round"/>
</g>
</svg>
